HIERARCHY
ROOT Hips
{
	OFFSET 0.000000 0.000000 0.000000
	CHANNELS 6 Xposition Yposition Zposition Xrotation Yrotation Zrotation
	JOINT LeftUpLeg_virtual
	{
		OFFSET 0.000000 0.000000 0.000000
		CHANNELS 3 Xrotation Yrotation Zrotation
		JOINT LeftUpLeg
		{
			OFFSET 11.394100 -6.187798 -0.413800
			CHANNELS 3 Xrotation Yrotation Zrotation
			JOINT LeftLeg
			{
				OFFSET 0.430247 -32.302673 3.732800
				CHANNELS 3 Xrotation Yrotation Zrotation
				JOINT LeftFoot
				{
					OFFSET -0.430247 -48.264931 -6.423300
					CHANNELS 3 Xrotation Yrotation Zrotation
					JOINT LeftToeBase
					{
						OFFSET 4.230900 -16.068199 23.438400
						CHANNELS 3 Xrotation Yrotation Zrotation
						JOINT LeftToe_End
						{
							OFFSET 4.510700 0.695400 19.974600
							CHANNELS 3 Xrotation Yrotation Zrotation
							End Site
							{
								OFFSET 0 0 0
							}
						}
					}
				}
			}
		}
	}
	JOINT RightUpLeg_virtual
	{
		OFFSET 0.000000 0.000000 0.000000
		CHANNELS 3 Xrotation Yrotation Zrotation
		JOINT RightUpLeg
		{
			OFFSET -11.333700 -6.187798 -0.413800
			CHANNELS 3 Xrotation Yrotation Zrotation
			JOINT RightLeg
			{
				OFFSET -0.430392 -32.302628 3.733000
				CHANNELS 3 Xrotation Yrotation Zrotation
				JOINT RightFoot
				{
					OFFSET 0.430392 -48.264973 -6.423500
					CHANNELS 3 Xrotation Yrotation Zrotation
					JOINT RightToeBase
					{
						OFFSET -4.230900 -16.068199 23.438400
						CHANNELS 3 Xrotation Yrotation Zrotation
						JOINT RightToe_End
						{
							OFFSET -4.510700 0.695400 19.974600
							CHANNELS 3 Xrotation Yrotation Zrotation
							End Site
							{
								OFFSET 0 0 0
							}
						}
					}
				}
			}
		}
	}
	JOINT Spine_virtual
	{
		OFFSET 0.000000 0.000000 0.000000
		CHANNELS 3 Xrotation Yrotation Zrotation
		JOINT Spine
		{
			OFFSET -0.002400 12.777504 0.315300
			CHANNELS 3 Xrotation Yrotation Zrotation
			JOINT Spine1
			{
				OFFSET -0.002067 5.816869 0.032633
				CHANNELS 3 Xrotation Yrotation Zrotation
				JOINT Spine1_split
				{
					OFFSET -0.002067 5.816869 0.032633
					CHANNELS 3 Xrotation Yrotation Zrotation
					JOINT Spine2
					{
						OFFSET -0.002067 5.816869 0.032633
						CHANNELS 3 Xrotation Yrotation Zrotation
						JOINT Neck_virtual
						{
							OFFSET 0.000000 0.000000 0.000000
							CHANNELS 3 Xrotation Yrotation Zrotation
							JOINT Neck
							{
								OFFSET -0.003700 21.199493 -0.826900
								CHANNELS 3 Xrotation Yrotation Zrotation
								JOINT Head
								{
									OFFSET 0.000000 20.442200 4.834800
									CHANNELS 3 Xrotation Yrotation Zrotation
									JOINT HeadTop_End
									{
										OFFSET 0.000000 34.668396 4.968400
										CHANNELS 3 Xrotation Yrotation Zrotation
										End Site
										{
											OFFSET 0 0 0
										}
									}
								}
							}
						}
						JOINT LeftShoulder_virtual
						{
							OFFSET 0.000000 0.000000 0.000000
							CHANNELS 3 Xrotation Yrotation Zrotation
							JOINT LeftShoulder
							{
								OFFSET 3.288150 8.794197 -1.372250
								CHANNELS 3 Xrotation Yrotation Zrotation
								JOINT LeftShoulder_split
								{
									OFFSET 3.288150 8.794197 -1.372250
									CHANNELS 3 Xrotation Yrotation Zrotation
									JOINT LeftArm
									{
										OFFSET 11.953299 -2.279007 -0.146200
										CHANNELS 3 Xrotation Yrotation Zrotation
										JOINT LeftForeArm
										{
											OFFSET 18.448900 0.000000 0.000000
											CHANNELS 3 Xrotation Yrotation Zrotation
											JOINT LeftHand
											{
												OFFSET 29.527798 0.000000 0.000000
												CHANNELS 3 Xrotation Yrotation Zrotation
												End Site
												{
													OFFSET 0 0 0
												}
											}
										}
									}
								}
							}
						}
						JOINT RightShoulder_virtual
						{
							OFFSET 0.000000 0.000000 0.000000
							CHANNELS 3 Xrotation Yrotation Zrotation
							JOINT RightShoulder
							{
								OFFSET -3.249400 8.794197 -1.372250
								CHANNELS 3 Xrotation Yrotation Zrotation
								JOINT RightShoulder_split
								{
									OFFSET -3.249400 8.794197 -1.372250
									CHANNELS 3 Xrotation Yrotation Zrotation
									JOINT RightArm
									{
										OFFSET -11.953299 -2.279007 -0.146200
										CHANNELS 3 Xrotation Yrotation Zrotation
										JOINT RightForeArm
										{
											OFFSET -18.448900 0.000000 0.000000
											CHANNELS 3 Xrotation Yrotation Zrotation
											JOINT RightHand
											{
												OFFSET -29.527802 0.000000 0.000000
												CHANNELS 3 Xrotation Yrotation Zrotation
												End Site
												{
													OFFSET 0 0 0
												}
											}
										}
									}
								}
							}
						}
					}
				}
			}
		}
	}
}
MOTION
Frames: 4
Frame Time: 0.03333333
-0.731774 77.676514 6.014454 0.000000 0.000000 0.000000 22.520515 -18.898338 7.650671 -82.929739 -1.568404 21.671280 59.905164 -1.172172 4.096470 5.687096 0.615156 -19.979746 -3.650020 -0.129636 0.082400 0.000000 0.000000 0.000000 22.348186 -19.759744 8.059289 -76.765295 -3.345512 -23.036485 62.361546 2.459971 -6.383926 -5.788924 -4.017185 19.487990 -4.831510 0.810906 -1.680330 0.000000 0.000000 0.000000 24.467078 -21.051901 7.993101 16.039135 1.627778 -1.258871 10.049915 2.015834 -1.221052 1.141594 0.825589 0.662607 0.000000 0.000000 0.000000 10.225123 1.752302 -0.432703 -8.495290 4.921312 -9.119602 -40.946550 10.156595 8.948265 0.000000 0.000000 0.000000 10.048375 1.835160 -1.249529 3.651396 -6.201243 7.327914 -5.400845 -3.185483 -0.543525 -51.926756 4.577702 -61.039235 -0.764895 -84.058947 0.209542 0.000000 0.000000 0.000000 11.121214 2.251389 -0.597587 2.956985 13.188467 4.119867 1.433415 3.412110 1.752870 -41.968777 11.487372 45.999722 167.148335 88.412919 -167.873523 0.000000 0.000000 0.000000 
-0.640862 77.921295 6.181000 0.000000 0.000000 0.000000 22.882392 -18.796909 7.888717 -82.689180 -1.204703 21.277156 58.962346 -1.369611 4.293316 5.472301 0.536305 -19.918210 -3.802796 -0.096826 0.200245 0.000000 0.000000 0.000000 22.706277 -19.806760 8.329629 -76.788012 -3.621179 -22.778604 61.790891 2.647779 -6.851687 -5.770597 -4.280665 19.686692 -4.791785 0.893311 -1.742100 0.000000 0.000000 0.000000 24.460273 -20.702896 8.127012 16.050444 1.670415 -1.225152 9.929846 2.070906 -1.287807 1.107439 0.439437 0.710040 0.000000 0.000000 0.000000 10.303381 1.774654 -0.492942 -8.051103 4.890617 -8.765917 -41.151900 10.957655 8.712892 0.000000 0.000000 0.000000 10.114511 1.866142 -1.194119 3.445413 -5.474745 6.414528 -5.510561 -3.183624 -0.725205 -50.500236 4.983704 -62.000024 -0.979029 -86.228666 -0.165618 0.000000 0.000000 0.000000 11.182136 2.190724 -0.698741 2.826250 13.032272 5.295990 1.127769 3.613475 1.606969 -40.371144 11.977383 46.790426 176.564652 85.088694 -177.402416 0.000000 0.000000 0.000000 
-0.651084 77.932243 6.324356 0.000000 0.000000 0.000000 23.204714 -18.841193 8.194711 -82.726220 -0.906368 21.137323 58.570552 -1.583628 4.420240 5.275806 0.456919 -19.957803 -3.921541 -0.084519 0.383405 0.000000 0.000000 0.000000 23.157709 -20.032443 8.671786 -77.242992 -3.680724 -22.570377 61.716537 2.739448 -7.211268 -5.793701 -4.366361 19.793082 -4.615558 0.989822 -1.789740 0.000000 0.000000 0.000000 24.515555 -20.535053 8.292899 16.055190 1.630436 -1.200659 9.923303 1.982739 -1.320809 1.015089 0.292604 0.685679 0.000000 0.000000 0.000000 10.465562 1.660314 -0.542819 -7.543384 4.849688 -8.429262 -41.369855 11.759229 8.410698 0.000000 0.000000 0.000000 10.331527 1.755271 -1.099669 3.302967 -4.991155 5.865370 -5.425510 -3.122041 -0.811571 -48.883937 5.411361 -62.508027 0.762529 -88.829807 1.493913 0.000000 0.000000 0.000000 11.321910 1.980443 -0.775889 2.787825 12.812579 5.928424 0.825537 3.614104 1.496866 -39.388287 11.892652 48.027278 178.368259 81.256930 -179.303585 0.000000 0.000000 0.000000 
-0.752165 77.758759 6.436382 0.000000 0.000000 0.000000 23.537925 -18.999413 8.541140 -82.935422 -0.710627 21.213109 58.565081 -1.740422 4.469930 5.070003 0.481708 -20.014925 -3.787037 -0.082759 0.571277 0.000000 0.000000 0.000000 23.683102 -20.383585 9.054724 -77.921475 -3.627947 -22.412489 62.025160 2.715763 -7.432442 -5.890812 -4.326748 19.719193 -4.314605 1.086624 -1.805169 0.000000 0.000000 0.000000 24.681681 -20.500094 8.455106 16.052756 1.518295 -1.166596 10.031797 1.807663 -1.318170 0.961175 0.267502 0.713708 0.000000 0.000000 0.000000 10.685345 1.459830 -0.581330 -7.082388 4.824905 -8.162174 -41.652392 12.547945 8.033841 0.000000 0.000000 0.000000 10.665392 1.549773 -0.987171 3.218852 -4.805902 5.363926 -5.130451 -2.971845 -0.761391 -47.212245 5.871250 -62.600979 176.377887 -88.703359 177.133088 0.000000 0.000000 0.000000 11.511768 1.687446 -0.825459 2.804175 12.604920 6.136887 0.577881 3.513192 1.444917 -38.759548 11.114423 49.512106 178.974070 77.264562 -179.986987 0.000000 0.000000 0.000000 
